<svg version="1" xmlns="http://www.w3.org/2000/svg" width="341.333" height="341.333" viewBox="0 0 256.000000 256.000000"><path d="M144.8 3.4c-5.4 3.7-45 43.9-46.3 47-2.4 5.5.6 13.6 6.2 16.7 4 2.2 10.2 2.3 14 .2 1.7-1 12.5-10.8 23.9-21.8 22.1-21.3 25.2-25.5 24-32-1.8-9.5-14.3-15.3-21.8-10.1zM174.5 33.5c-4.9 2.6-44.4 42.6-45.5 46.2-.6 1.7-.9 4.4-.6 6 .2 1.5.5 3.6.5 4.6.1 2 31.2 33.7 35.1 35.7 3.8 2 9.2 2.3 13 .6 2.1-.9 12-10 24.7-22.8 21.8-22 23.2-23.9 21.9-30.3-.3-1.1-.5-2.8-.5-3.8-.1-2.2-31.5-34-35.6-35.9-4.2-2-9.5-2.1-13-.3zM236.4 90.3c-3.6 1.4-44 41.3-47.3 46.7-1.1 1.9-2.1 5-2.1 6.9 0 4.3 4 11.2 7.5 13.1 3.5 1.9 9.5 1.7 13.7-.3 1.8-.9 13-11.4 25-23.4 17.8-18 21.7-22.4 22.3-25.4 1.4-7.4-.5-12.5-5.7-15.7-4.3-2.7-9.6-3.4-13.4-1.9zM118.6 107.1c-3.8 4.5-5.8 8.8-5.3 11.3.7 2.9-.2 4.7-4.8 9.7-7.3 8.1-15.9 15.1-50.2 41-34.4 26-41.8 32.7-50.4 45.8-9.5 14.4-10 25.9-1.4 34.6 8.7 8.6 21 8 35.3-1.8 12.6-8.7 20.6-17.5 43.7-48.2 26.8-35.6 44.4-56.4 47.9-56.6 8.7-.4 9.6-.7 14.1-4.4l4.7-3.8-15.3-15.3c-8.5-8.5-15.5-15.4-15.5-15.4-.1 0-1.4 1.4-2.8 3.1z"/></svg>